<svg xmlns="http://www.w3.org/2000/svg" viewBox="0 0 359.89 78"><defs><style>.cls-1{isolation:isolate;}.cls-2{fill:#5bb77f;}.cls-3{fill:#fff;}.cls-4{opacity:0.2;mix-blend-mode:multiply;}.cls-5{fill:#1d1d1b;}</style></defs><title>Ресурс 5</title><g class="cls-1"><g id="Слой_2" data-name="Слой 2"><g id="Login"><g id="_Группа_" data-name="&lt;Группа&gt;"><rect id="_Контур_" data-name="&lt;Контур&gt;" class="cls-2" width="359.89" height="78" rx="6.65" ry="6.65"/></g><g id="_Группа_2" data-name="&lt;Группа&gt;"><path id="_Контур_2" data-name="&lt;Контур&gt;" class="cls-3" d="M98.55,12.24s.17.81.4,2.23.51,3.44.75,5.87a175.35,175.35,0,0,1,.86,17.81,173.41,173.41,0,0,1-.85,17.81c-.24,2.43-.53,4.45-.75,5.87s-.4,2.23-.4,2.23-.17-.81-.4-2.23-.52-3.44-.75-5.87a173.43,173.43,0,0,1-.85-17.81,175.38,175.38,0,0,1,.86-17.81c.24-2.43.52-4.45.75-5.87S98.55,12.24,98.55,12.24Z"/></g><g id="_Группа_3" data-name="&lt;Группа&gt;" class="cls-4"><path id="_Контур_3" data-name="&lt;Контур&gt;" class="cls-5" d="M180.7,71.49c-85.62,0-157.89-18-180.7-42.63V71.35A6.65,6.65,0,0,0,6.65,78h346.6a6.65,6.65,0,0,0,6.65-6.65V30.4C335.54,54.24,264.52,71.49,180.7,71.49Z"/></g><path class="cls-3" d="M132.13,22.48h-4V17.56h14v4.91h-4V33.29h-6.06Z"/><path class="cls-3" d="M143.89,17.56h9.92q3.27,0,4.67,1.1a4.41,4.41,0,0,1,1.39,3.68,4.18,4.18,0,0,1-1.49,3.53,5.91,5.91,0,0,1-2.74,1l4.42,6.4h-6.82L150,28.23v5.07h-6.06ZM150,25.12h1.93a2,2,0,0,0,1.41-.47,1.66,1.66,0,0,0,.52-1.29,1.53,1.53,0,0,0-.52-1.22,2.07,2.07,0,0,0-1.41-.45H150Z"/><path class="cls-3" d="M165.83,28.66l-5.08-11.09H167l1.92,5.15h0l1.9-5.15H177L171.89,29v4.34h-6.06Z"/><path class="cls-3" d="M186.31,17.56h8q4.47,0,6.21,1.5t1.75,5.31v0q0,5-1.7,6.93t-6.08,2h-8.15Zm6.06,11.57h1.33a2.2,2.2,0,0,0,1.91-.79,4.72,4.72,0,0,0,.57-2.68,3.9,3.9,0,0,0-.61-2.48,2.56,2.56,0,0,0-2.07-.73h-1.14Z"/><path class="cls-3" d="M204.21,33.29V17.56h13.17v4.91h-7.11V24h7.11v3.68h-7.11v1.94h7.11v3.68Z"/><path class="cls-3" d="M225.21,33.29h-5.75V17.56h7.67l2.34,7.29h0l2.26-7.29h7.67V33.29h-5.63V24.4h0L231,33.29h-3l-2.77-8.64h0Z"/><path class="cls-3" d="M242.91,31.67Q241,29.74,241,25.19q0-4.3,1.95-6.12t6.48-1.83q4.56,0,6.51,1.81t1.93,6.09v0q0,4.54-1.93,6.48t-6.51,1.94Q244.85,33.61,242.91,31.67Zm8.22-3.44a4.21,4.21,0,0,0,.64-2.47,4.16,4.16,0,0,0-.59-2.45,2.07,2.07,0,0,0-1.79-.81,2,2,0,0,0-1.78.84,4.45,4.45,0,0,0-.59,2.54,4,4,0,0,0,.63,2.38,2.14,2.14,0,0,0,3.47,0Z"/><path class="cls-3" d="M152.87,56.87q-1.94-1.94-1.95-6.48,0-4.3,1.95-6.12t6.48-1.83q4.56,0,6.51,1.81t1.93,6.09v0q0,4.54-1.93,6.48t-6.51,1.94Q154.81,58.81,152.87,56.87Zm8.22-3.44a4.21,4.21,0,0,0,.64-2.47,4.16,4.16,0,0,0-.59-2.45,2.07,2.07,0,0,0-1.79-.81,2,2,0,0,0-1.78.84,4.45,4.45,0,0,0-.59,2.54,4,4,0,0,0,.63,2.38,2.14,2.14,0,0,0,3.47,0Z"/><path class="cls-3" d="M175.21,58.49h-5.65V42.76h7l3.35,7.05V42.76h5.65V58.49h-6.21l-4.11-8.65Z"/><path class="cls-3" d="M188.32,58.49V42.76h6.06V53.58h5.3v4.91Z"/><path class="cls-3" d="M201.67,42.76h6.06V58.49h-6.06Z"/><path class="cls-3" d="M216.25,58.49H210.6V42.76h7l3.35,7.05V42.76h5.65V58.49h-6.21l-4.11-8.65Z"/><path class="cls-3" d="M229.19,58.49V42.76h13.17v4.91h-7.11v1.52h7.11v3.68h-7.11v1.94h7.11v3.68Z"/><path id="_Составной_контур_" data-name="&lt;Составной контур&gt;" class="cls-3" d="M69.46,32.62H44V23.85c0-3.93,3.85-7.12,8.58-7.12s8.58,3.2,8.58,7.12h5.42c0-6.41-6.28-11.62-14-11.62s-14,5.21-14,11.62v8.78H35.64c-2,0-3.54,1.32-3.54,2.94V54.45c0,2.23,2.18,4,4.87,4H68.13c2.69,0,4.87-1.81,4.87-4V35.56C73,33.94,71.41,32.62,69.46,32.62ZM58.4,54.91H46.71L49,44.9a4.62,4.62,0,0,1-2.28-3.84c0-2.68,2.62-4.85,5.84-4.85s5.84,2.17,5.84,4.85a4.69,4.69,0,0,1-2.56,4Z"/></g></g></g></svg>