<svg xmlns="http://www.w3.org/2000/svg" viewBox="0 0 359.89 78"><defs><style>.cls-1{isolation:isolate;}.cls-2{fill:#9d559d;}.cls-3{fill:#fff;}.cls-4{opacity:0.2;mix-blend-mode:multiply;}.cls-5{fill:#1d1d1b;}</style></defs><title>Ресурс 6</title><g class="cls-1"><g id="Слой_2" data-name="Слой 2"><g id="Next"><g id="_Группа_" data-name="&lt;Группа&gt;"><rect id="_Контур_" data-name="&lt;Контур&gt;" class="cls-2" width="359.89" height="78" rx="6.65" ry="6.65"/></g><g id="_Группа_2" data-name="&lt;Группа&gt;"><path id="_Контур_2" data-name="&lt;Контур&gt;" class="cls-3" d="M98.55,12.24s.17.81.4,2.23.51,3.44.75,5.87a175.35,175.35,0,0,1,.86,17.81,173.41,173.41,0,0,1-.85,17.81c-.24,2.43-.53,4.45-.75,5.87s-.4,2.23-.4,2.23-.17-.81-.4-2.23-.52-3.44-.75-5.87a173.43,173.43,0,0,1-.85-17.81,175.38,175.38,0,0,1,.86-17.81c.24-2.43.52-4.45.75-5.87S98.55,12.24,98.55,12.24Z"/></g><g id="_Группа_3" data-name="&lt;Группа&gt;" class="cls-4"><path id="_Контур_3" data-name="&lt;Контур&gt;" class="cls-5" d="M180.7,71.49c-85.62,0-157.89-18-180.7-42.63V71.35A6.65,6.65,0,0,0,6.65,78h346.6a6.65,6.65,0,0,0,6.65-6.65V30.4C335.54,54.24,264.52,71.49,180.7,71.49Z"/></g><path class="cls-3" d="M114.5,29.63V13.9h13.17v4.91h-7.11v1.52h7.11V24h-7.11v1.94h7.11v3.68Z"/><path class="cls-3" d="M135.5,29.63h-5.75V13.9h7.67l2.34,7.29h0L142,13.9h7.67V29.63h-5.63V20.74h0l-2.77,8.89h-3L135.5,21h0Z"/><path class="cls-3" d="M155.35,13.9h9.39l4.31,15.73H162.7l-.54-2.5h-4.41l-.55,2.5H151Zm3.18,9.5h2.85L160,16.84h0Z"/><path class="cls-3" d="M171,13.9h6.06V29.63H171Z"/><path class="cls-3" d="M180.13,29.63V13.9h6.06V24.72h5.3v4.91Z"/><path class="cls-3" d="M215.91,24q0,3.22-1.7,4.59t-5.73,1.37q-4,0-5.73-1.37T201,24V13.9h6.06V24.09a1.45,1.45,0,1,0,2.89,0V13.9h5.93Z"/><path class="cls-3" d="M231.33,19.34q-1.41-.33-2.29-.46a11.59,11.59,0,0,0-1.73-.13,11.18,11.18,0,0,0-2.56.2q-.74.2-.74.68a.58.58,0,0,0,.42.55,4.08,4.08,0,0,0,1.36.16q3.53,0,4.81.91t1.27,3.43a4.83,4.83,0,0,1-1.55,4,7.49,7.49,0,0,1-4.81,1.29q-1.86,0-3.32-.13t-3.57-.5V25.1a21.23,21.23,0,0,0,2.1.37,18,18,0,0,0,2,.1,10.2,10.2,0,0,0,2.47-.21q.72-.21.72-.72a.64.64,0,0,0-.42-.62,3.65,3.65,0,0,0-1.36-.18q-3.53,0-4.81-1t-1.27-3.91a4.78,4.78,0,0,1,1.7-4,8.47,8.47,0,0,1,5.19-1.3,22,22,0,0,1,2.43.15q1.37.15,3.94.55Z"/><path class="cls-3" d="M241.51,29.63V13.9h13v4.91h-7v2.13h7v4.17h-7v4.51h-6.06Z"/><path class="cls-3" d="M257.75,28q-1.94-1.94-1.95-6.48,0-4.3,1.95-6.12t6.48-1.82q4.56,0,6.51,1.81t1.93,6.09v0q0,4.54-1.93,6.48t-6.51,1.94Q259.69,29.95,257.75,28ZM266,24.57a4.21,4.21,0,0,0,.64-2.47,4.16,4.16,0,0,0-.59-2.45,2.07,2.07,0,0,0-1.79-.81,2,2,0,0,0-1.78.84,4.45,4.45,0,0,0-.59,2.54,4,4,0,0,0,.63,2.38,2.14,2.14,0,0,0,3.47,0Z"/><path class="cls-3" d="M274.52,13.9h9.92q3.27,0,4.67,1.1a4.41,4.41,0,0,1,1.39,3.68A4.18,4.18,0,0,1,289,22.21a5.91,5.91,0,0,1-2.74,1l4.42,6.4h-6.82l-3.29-5.07v5.07h-6.06Zm6.06,7.56h1.93a2,2,0,0,0,1.41-.47,1.66,1.66,0,0,0,.52-1.29,1.53,1.53,0,0,0-.52-1.22A2.07,2.07,0,0,0,282.5,18h-1.93Z"/><path class="cls-3" d="M118,54.83V39.1h13V44h-7v2.13h7v4.17h-7v4.51H118Z"/><path class="cls-3" d="M148.15,49.19q0,3.22-1.7,4.59t-5.73,1.37q-4,0-5.73-1.37t-1.72-4.59V39.1h6.06V49.29a1.45,1.45,0,1,0,2.89,0V39.1h5.93Z"/><path class="cls-3" d="M151.08,54.83V39.1h6.06V49.92h5.3v4.91Z"/><path class="cls-3" d="M164.24,54.83V39.1h6.06V49.92h5.3v4.91Z"/><path class="cls-3" d="M184.15,39.1h6.12l2.17,10.16h0l2.22-10.16h6L196.4,54.83h-8Z"/><path class="cls-3" d="M202.4,54.83V39.1h13.17V44h-7.11v1.52h7.11v3.68h-7.11v1.94h7.11v3.68Z"/><path class="cls-3" d="M218,39.1h9.92q3.27,0,4.67,1.1a4.41,4.41,0,0,1,1.39,3.68,4.18,4.18,0,0,1-1.49,3.53,5.91,5.91,0,0,1-2.74,1l4.42,6.4h-6.82L224,49.76v5.07H218ZM224,46.66H226a2,2,0,0,0,1.41-.47,1.66,1.66,0,0,0,.52-1.29,1.53,1.53,0,0,0-.52-1.22,2.07,2.07,0,0,0-1.41-.45H224Z"/><path class="cls-3" d="M248.36,44.54q-1.41-.33-2.29-.46a11.59,11.59,0,0,0-1.73-.13,11.18,11.18,0,0,0-2.56.2q-.74.2-.74.68a.58.58,0,0,0,.42.55,4.08,4.08,0,0,0,1.36.16q3.53,0,4.81.91t1.27,3.43a4.83,4.83,0,0,1-1.55,4,7.49,7.49,0,0,1-4.81,1.29q-1.86,0-3.32-.13t-3.57-.5V50.3a21.23,21.23,0,0,0,2.1.37,18,18,0,0,0,2,.1,10.2,10.2,0,0,0,2.47-.21q.72-.21.72-.72a.64.64,0,0,0-.42-.62,3.65,3.65,0,0,0-1.36-.18q-3.53,0-4.81-1T235.1,44.1a4.78,4.78,0,0,1,1.7-4,8.47,8.47,0,0,1,5.19-1.3,22,22,0,0,1,2.43.15q1.37.15,3.94.55Z"/><path class="cls-3" d="M251.17,39.1h6.06V54.83h-6.06Z"/><path class="cls-3" d="M261.23,53.21q-1.94-1.94-1.95-6.48,0-4.3,1.95-6.12t6.48-1.82q4.56,0,6.51,1.81t1.93,6.09v0q0,4.54-1.93,6.48t-6.51,1.94Q263.16,55.15,261.23,53.21Zm8.22-3.44a4.21,4.21,0,0,0,.64-2.47,4.16,4.16,0,0,0-.59-2.45,2.07,2.07,0,0,0-1.79-.81,2,2,0,0,0-1.78.84,4.45,4.45,0,0,0-.59,2.54,4,4,0,0,0,.63,2.38,2.14,2.14,0,0,0,3.47,0Z"/><path class="cls-3" d="M283.56,54.83h-5.65V39.1h7l3.35,7.05V39.1h5.65V54.83h-6.21l-4.11-8.65Z"/></g><g id="Contact_Us" data-name="Contact Us"><g id="_Группа_4" data-name="&lt;Группа&gt;"><path id="_Контур_4" data-name="&lt;Контур&gt;" class="cls-3" d="M77.24,23.88s0,0,0,0l-13,13.07,13,16.75a3.38,3.38,0,0,0,0-.4Z"/><path id="_Контур_5" data-name="&lt;Контур&gt;" class="cls-3" d="M37.78,34.47l1.61,1.66,11,11.37L61.16,36.68,62.79,35,76.24,21.54a2.37,2.37,0,0,0-1.59-.63H26a2.29,2.29,0,0,0-1.06.26Z"/><path id="_Контур_6" data-name="&lt;Контур&gt;" class="cls-3" d="M36.3,36.27,23.49,23a3.35,3.35,0,0,0-.11.85V52Z"/><path id="_Контур_7" data-name="&lt;Контур&gt;" class="cls-3" d="M62.6,38.53,50.37,50.81,37.91,37.93,23.9,55A2.5,2.5,0,0,0,26,56.22H74.64A2.33,2.33,0,0,0,76,55.79Z"/></g></g></g></g></svg>