<svg xmlns="http://www.w3.org/2000/svg" viewBox="0 0 359.89 78"><defs><style>.cls-1{isolation:isolate;}.cls-2{fill:#72b62b;}.cls-3{fill:#fff;}.cls-4{opacity:0.2;mix-blend-mode:multiply;}.cls-5{fill:#1d1d1b;}</style></defs><title>Ресурс 3</title><g class="cls-1"><g id="Слой_2" data-name="Слой 2"><g id="Subscribe"><g id="_Группа_" data-name="&lt;Группа&gt;"><rect id="_Контур_" data-name="&lt;Контур&gt;" class="cls-2" width="359.89" height="78" rx="6.65" ry="6.65"/></g><g id="_Группа_2" data-name="&lt;Группа&gt;"><path id="_Контур_2" data-name="&lt;Контур&gt;" class="cls-3" d="M89.22,12.24s.17.81.4,2.23.51,3.44.75,5.87a175.35,175.35,0,0,1,.86,17.81,173.41,173.41,0,0,1-.85,17.81c-.23,2.43-.53,4.45-.75,5.87s-.4,2.23-.4,2.23-.17-.81-.4-2.23-.52-3.44-.75-5.87a173.43,173.43,0,0,1-.85-17.81,175.35,175.35,0,0,1,.86-17.81c.24-2.43.52-4.45.75-5.87S89.22,12.24,89.22,12.24Z"/></g><g id="_Группа_3" data-name="&lt;Группа&gt;" class="cls-4"><path id="_Контур_3" data-name="&lt;Контур&gt;" class="cls-5" d="M180.7,71.49c-85.62,0-157.89-18-180.7-42.63V71.35A6.65,6.65,0,0,0,6.65,78h346.6a6.65,6.65,0,0,0,6.65-6.65V30.4C335.54,54.24,264.52,71.49,180.7,71.49Z"/></g><path id="_Составной_контур_" data-name="&lt;Составной контур&gt;" class="cls-3" d="M64.71,16.46H29.53a5.93,5.93,0,0,0-6.19,5.64V54.17a5.93,5.93,0,0,0,6.19,5.64H64.71a5.93,5.93,0,0,0,6.19-5.64V22.1A5.93,5.93,0,0,0,64.71,16.46ZM37,49.43V26.84a1,1,0,0,1,1.49-.75l19.82,11.3a.85.85,0,0,1,0,1.51L38.51,50.19A1,1,0,0,1,37,49.43Z"/><path class="cls-3" d="M149.35,32.64q-1.61-.37-2.62-.53a13.26,13.26,0,0,0-2-.15,12.81,12.81,0,0,0-2.93.23q-.85.23-.85.78a.67.67,0,0,0,.48.63,4.67,4.67,0,0,0,1.56.19q4,0,5.5,1T150,38.76a5.51,5.51,0,0,1-1.78,4.54q-1.79,1.47-5.5,1.47-2.12,0-3.8-.15T134.82,44V39.22a24.23,24.23,0,0,0,2.4.42,20.5,20.5,0,0,0,2.32.12,11.65,11.65,0,0,0,2.82-.23q.82-.23.82-.82a.74.74,0,0,0-.48-.7,4.18,4.18,0,0,0-1.56-.21q-4,0-5.49-1.18t-1.45-4.46a5.47,5.47,0,0,1,1.94-4.59q1.93-1.49,5.94-1.49a25.16,25.16,0,0,1,2.77.18q1.56.18,4.51.63Z"/><path class="cls-3" d="M169.35,38q0,3.68-1.95,5.24t-6.55,1.56q-4.59,0-6.54-1.56t-2-5.24V26.43h6.93V38.08a1.65,1.65,0,1,0,3.3,0V26.43h6.77Z"/><path class="cls-3" d="M172.5,26.43H186a4.62,4.62,0,0,1,3.41,1,5,5,0,0,1,1,3.52q0,2.86-1.82,3.86a6.75,6.75,0,0,1-1.86.61,7.36,7.36,0,0,1,1.82.61,3.62,3.62,0,0,1,2.05,3.5,5.63,5.63,0,0,1-1,3.71,4.12,4.12,0,0,1-3.25,1.11H172.5Zm6.93,7.42h2.47a3.92,3.92,0,0,0,1.77-.26,1.16,1.16,0,0,0,.42-1.07,1.08,1.08,0,0,0-.42-1,4.09,4.09,0,0,0-1.77-.25h-2.47Zm0,6.3h2.79a3.3,3.3,0,0,0,1.66-.28,1.33,1.33,0,0,0,.4-1.15,1.16,1.16,0,0,0-.44-1.09,4.25,4.25,0,0,0-1.85-.26h-2.57Z"/><path class="cls-3" d="M206.88,32.64q-1.61-.37-2.62-.53a13.26,13.26,0,0,0-2-.15,12.81,12.81,0,0,0-2.93.23q-.85.23-.85.78a.67.67,0,0,0,.48.63,4.67,4.67,0,0,0,1.56.19q4,0,5.5,1t1.46,3.93a5.51,5.51,0,0,1-1.78,4.54q-1.79,1.47-5.5,1.47-2.12,0-3.8-.15T192.34,44V39.22a24.23,24.23,0,0,0,2.4.42,20.5,20.5,0,0,0,2.32.12,11.65,11.65,0,0,0,2.82-.23q.82-.23.82-.82a.74.74,0,0,0-.48-.7,4.18,4.18,0,0,0-1.56-.21q-4,0-5.49-1.18t-1.45-4.46a5.47,5.47,0,0,1,1.94-4.59q1.93-1.49,5.94-1.49a25.16,25.16,0,0,1,2.77.18q1.56.18,4.51.63Z"/><path class="cls-3" d="M224.81,43.69a10.1,10.1,0,0,1-2.57.81,18.19,18.19,0,0,1-3.29.27q-5.26,0-7.51-2.21t-2.26-7.41q0-4.91,2.07-7t6.9-2.09a20.48,20.48,0,0,1,3.22.29,25.37,25.37,0,0,1,3.43.79v5.92a21.56,21.56,0,0,0-2.84-.82A11.65,11.65,0,0,0,219.6,32,3.16,3.16,0,0,0,217,33.07a4.55,4.55,0,0,0-.94,3,3.52,3.52,0,0,0,1,2.67,3.91,3.91,0,0,0,2.81,1,10.28,10.28,0,0,0,2.7-.35,6.94,6.94,0,0,0,2.16-1Z"/><path class="cls-3" d="M227.48,26.43h11.33q3.74,0,5.33,1.25t1.59,4.21a4.77,4.77,0,0,1-1.7,4,6.77,6.77,0,0,1-3.13,1.17L246,44.4h-7.79l-3.76-5.79V44.4h-6.93Zm6.93,8.64h2.2a2.3,2.3,0,0,0,1.61-.54,1.9,1.9,0,0,0,.59-1.48,1.76,1.76,0,0,0-.59-1.39,2.37,2.37,0,0,0-1.61-.52h-2.2Z"/><path class="cls-3" d="M248.15,26.43h6.93v18h-6.93Z"/><path class="cls-3" d="M258.35,26.43h13.52a4.62,4.62,0,0,1,3.41,1,5,5,0,0,1,1,3.52q0,2.86-1.82,3.86a6.75,6.75,0,0,1-1.86.61,7.36,7.36,0,0,1,1.82.61,3.62,3.62,0,0,1,2.05,3.5,5.63,5.63,0,0,1-1,3.71,4.12,4.12,0,0,1-3.25,1.11H258.35Zm6.93,7.42h2.47a3.92,3.92,0,0,0,1.77-.26,1.16,1.16,0,0,0,.42-1.07,1.08,1.08,0,0,0-.42-1,4.09,4.09,0,0,0-1.77-.25h-2.47Zm0,6.3h2.79a3.3,3.3,0,0,0,1.66-.28,1.33,1.33,0,0,0,.4-1.15,1.16,1.16,0,0,0-.44-1.09,4.25,4.25,0,0,0-1.85-.26h-2.57Z"/><path class="cls-3" d="M278.27,44.4v-18h15V32h-8.12v1.73h8.12V38h-8.12V40.2h8.12V44.4Z"/></g></g></g></svg>